<?xml version="1.0" encoding="utf-8"?>
<!-- Generator: Adobe Illustrator 25.4.1, SVG Export Plug-In . SVG Version: 6.00 Build 0)  -->
<svg version="1.1" id="Laag_1" xmlns="http://www.w3.org/2000/svg" xmlns:xlink="http://www.w3.org/1999/xlink" x="0px" y="0px"
	 viewBox="0 0 1500 338.8" enable-background="new 0 0 1500 338.8" xml:space="preserve">
<g>
	<g>
		<polygon fill="#FFFFFF" points="309.4,151.7 205.7,151.7 261.8,248.9 72.5,248.9 20.7,338.8 270,338.8 343.7,211.1 		"/>
		<polygon fill="#FFFFFF" points="138,187.1 81.9,89.9 271.2,89.9 323.1,0 73.7,0 0,127.7 34.3,187.1 		"/>
	</g>
	<g>
		<path fill="#FFFFFF" d="M474.5,203.9h37.7c3.2,21.7,18.9,32,43.1,32c22.1,0,37-8.9,37-25.3c0-14.6-10.3-21.7-45.2-28.1
			c-44.5-7.5-66.2-21.7-66.2-54.5s29.5-54.8,71.5-54.8c44.1,0,71.5,21,75.1,57.3h-37.4c-2.8-18.5-17.1-28.5-38.1-28.5
			c-20.3,0-33.5,8.9-33.5,23.8c0,14.2,10.3,21,43.8,26.3c46.3,7.5,68.7,22.8,68.7,54.8c0,34.9-30.3,58.4-76.2,58.4
			C507.6,265.5,478.1,243.1,474.5,203.9z"/>
		<path fill="#FFFFFF" d="M692.2,260.9L637.1,77.6h39.5l38.1,139.5l38.1-139.5h38.8l38.8,140.6l38.4-140.6h38.8L852,260.9h-41.3
			L772,124.6l-38.4,136.3H692.2z"/>
		<path fill="#FFFFFF" d="M911.5,211.4c0-29.2,17.8-48.4,49.1-52.7l72.3-10.7v-13.2c0-20.3-13.9-31-37-31
			c-22.8,0-38.1,10.3-39.9,28.8h-37.4c3.2-37.7,33.1-59.4,77.9-59.4c47.3,0,74,24.9,74,63v124.6h-35.9l-1.4-28.5
			c-11.4,20.6-33.8,33.1-60.2,33.1C935.4,265.5,911.5,242.7,911.5,211.4z M1032.9,193.6v-16.7l-58.7,8.2
			c-16.7,2.5-24.6,10.3-24.6,24.6c0,15.3,11.7,24.9,32.4,24.9C1009.4,234.5,1032.9,217.4,1032.9,193.6z"/>
		<path fill="#FFFFFF" d="M1104.6,260.9V77.6h37.7l1.1,35.6c10-23.5,29.2-39.1,55.5-39.1c2.8,0,6.8,0.4,10,1.1v38.1
			c-3.6-0.4-7.8-0.7-12.1-0.7c-33.1,0-53,18.9-53,55.2v93.3H1104.6z"/>
		<path fill="#FFFFFF" d="M1228.1,260.9V77.6h37.7l1.1,28.5c9.3-17.4,27.8-32.7,56.6-32.7c27.4,0,46.3,12.5,54.8,35.6
			c12.8-22.4,33.5-35.6,60.5-35.6c42,0,61.2,27,61.2,69.4v118.2h-39.2V150.5c0-30.3-11-44.8-35.2-44.8c-26.3,0-41.6,19.6-41.6,53.4
			v101.8h-39.1v-110c0-29.9-10.7-45.2-34.9-45.2c-26.3,0-42.7,19.2-42.7,53.7v101.4H1228.1z"/>
	</g>
</g>
</svg>
